<svg xmlns="http://www.w3.org/2000/svg">
   <symbol id="nav-menu-icon" viewBox="0 0 24 24">
      <path d="M24 3.5a1.5 1.5 0 0 1-1.5 1.5H1.5A1.5 1.5 0 0 1 1.5 2h21A1.5 1.5 0 0 1 24 3.5ZM6.5 20h-5A1.5 1.5 0 0 0 1.5 23h5a1.5 1.5 0 0 0 0-3ZM14.5 11h-13A1.5 1.5 0 0 0 1.5 14h13a1.5 1.5 0 0 0 0-3Z"/>
   </symbol>
   
   <symbol id="nav-product-icon" viewBox="0 0 24 24">
      <path d="m23.199,11.599c-.761-1.016-1.927-1.599-3.197-1.599h-7.997v-2.993h10.995c.552,0,1-.447,1-1s-.448-1-1-1h-10.995v-1.421l10.983-.58c.552-.029.975-.5.946-1.052s-.497-.968-1.051-.946L3.946,2.008c-.552.029-.975.5-.946,1.052.028.533.47.947.998.947.018,0,.036,0,.054,0l.954-.05v1.051h-1.007c-.552,0-1,.447-1,1s.448,1,1,1h1.007v2.993h-.999c-1.27,0-2.435.582-3.196,1.598C.042,12.622-.191,13.917.168,15.149c.708,2.421,1.989,4.605,3.708,6.317,1.617,1.609,3.901,2.533,6.268,2.533h3.722c2.366,0,4.65-.924,6.268-2.534,1.719-1.711,3-3.896,3.707-6.316.36-1.232.126-2.526-.642-3.551ZM7.005,3.85l3-.158v1.315h-3v-1.157Zm0,3.157h3v2.993h-3v-2.993Z"/>
   </symbol>
   
   <symbol id="nav-theme-icon" viewBox="0 0 24 24">
      <path d="M23.305,16.25a1.888,1.888,0,0,1-1.377,1.177,1.912,1.912,0,0,1-1.769-.521l-.1-.1a3.567,3.567,0,0,0-6.089,2.553l.04,4.516-.924.077c-.331.028-.663.05-1,.05A12,12,0,0,1,3.745,3.371,11.885,11.885,0,0,1,12.5.007,12.155,12.155,0,0,1,24.08,11.7,11.924,11.924,0,0,1,23.305,16.25Zm-6.19-8.2A1.5,1.5,0,1,0,18.95,9.115,1.5,1.5,0,0,0,17.115,8.05Zm-5-3A1.5,1.5,0,1,0,13.95,6.115,1.5,1.5,0,0,0,12.115,5.05Zm-5,3A1.5,1.5,0,1,0,8.95,9.115,1.5,1.5,0,0,0,7.115,8.05Zm0,6A1.5,1.5,0,1,0,8.95,15.115,1.5,1.5,0,0,0,7.115,14.05Z"/>
   </symbol>
   
   <symbol id="nav-contact-icon" viewBox="0 0 24 24">
      <path d="M21,12.418V11A9,9,0,0,0,3,11v1.418A5,5,0,0,0,5,22H7V12H5V11a7,7,0,0,1,14,0v1H17v8H13v2h6a5,5,0,0,0,2-9.582Z"/>
   </symbol>
   
   <symbol id="nav-cart-icon" viewBox="0 0 24 24">
      <path d="m22.5,18.013h-14c-1.378,0-2.5-1.121-2.5-2.5V4.513C6,2.031,3.981.013,1.5.013.671.013,0,.685,0,1.513s.671,1.5,1.5,1.5,1.5.673,1.5,1.5v11c0,2.133,1.221,3.986,3,4.898v1.102c0,1.381,1.119,2.5,2.5,2.5s2.5-1.119,2.5-2.5v-.5h5v.5c0,1.381,1.119,2.5,2.5,2.5s2.5-1.119,2.5-2.5v-.5h1.5c.829,0,1.5-.672,1.5-1.5s-.671-1.5-1.5-1.5Z"/>
   </symbol>
   
   <symbol id="nav-profile-icon" viewBox="0 0 24 24">
      <path d="M7.5 6.5C7.5 8.981 9.519 11 12 11s4.5-2.019 4.5-4.5S14.481 2 12 2 7.5 4.019 7.5 6.5zM20 21h1v-1c0-3.859-3.141-7-7-7h-4c-3.86 0-7 3.141-7 7v1h17z"/>
   </symbol>
</svg>
